# xmcd CD database file
#
# Track frame offsets:
#	150
#	15549
#	26870
#	45654
#	57688
#	73766
#	85134
#	96119
#	114601
#	128039
#	145334
#	156450
#	171668
#	191966
#
# Disc length: 2737 seconds
#
# Revision: 1
# Processed by: cddbd v1.5.2PL0 Copyright (c) Steve Scherf et al.
# Submitted via: CDex 1.51
#
DISCID=d50aaf0e
DTITLE=Steel and Wood - Finest country music
DYEAR=2005
DGENRE=Country
TTITLE0=Tonight the heartache´s to me
TTITLE1=Bad moon rising
TTITLE2=More of you
TTITLE3=Folsom prison blues
TTITLE4=Honey I´m home
TTITLE5=Louisiana saturday night
TTITLE6=I wish you knew
TTITLE7=Neon moon
TTITLE8=No one needs to know
TTITLE9=Rose-a-lee
TTITLE10=Some days you gotta dance
TTITLE11=Honey
TTITLE12=Take it to the limit
TTITLE13=Cowboy´s sweetheart
EXTD=YEAR: 2005
EXTT0=
EXTT1=
EXTT2=
EXTT3=
EXTT4=
EXTT5=
EXTT6=
EXTT7=
EXTT8=
EXTT9=
EXTT10=
EXTT11=
EXTT12=
EXTT13=
PLAYORDER=
